<?xml version="1.0" encoding="utf-8"?>
<!-- Generator: Adobe Illustrator 21.1.0, SVG Export Plug-In . SVG Version: 6.00 Build 0)  -->
<svg version="1.1" id="Layer_1" xmlns="http://www.w3.org/2000/svg" xmlns:xlink="http://www.w3.org/1999/xlink" x="0px" y="0px"
	 viewBox="0 0 769.5 105" style="enable-background:new 0 0 769.5 105;" xml:space="preserve">
<style type="text/css">
	.st0{fill:#FFFFFF;}
</style>
<g>
	<g>
		<g>
			<g>
				<path class="st0" d="M662.8,108.8V72.3h106.7v36.5H662.8z"/>
				<path class="st0" d="M662.8,58.2V21.6h63.8v36.5h-63.8V58.2z"/>
			</g>
		</g>
	</g>
	<g>
		<path class="st0" d="M1,104c-0.7-0.7-1-1.6-1-2.7V3.9c0-1.1,0.3-2,1-2.8C1.7,0.4,2.6,0,3.8,0h20.5c1.1,0,2,0.4,2.8,1.1
			s1.1,1.7,1.1,2.8v35.5h35.4V3.9c0-1.1,0.4-2,1.1-2.8S66.4,0,67.5,0h20.4c1.1,0,2,0.4,2.8,1.1s1.1,1.7,1.1,2.8v97.3
			c0,1.1-0.4,2-1.1,2.7c-0.8,0.7-1.7,1-2.8,1H67.5c-1.1,0-2-0.3-2.8-1c-0.8-0.7-1.1-1.6-1.1-2.7V64.5H28.2v36.8c0,1.1-0.4,2-1.1,2.7
			c-0.8,0.7-1.7,1-2.8,1H3.8C2.6,105,1.7,104.7,1,104z"/>
		<path class="st0" d="M193.9,70.2c-0.8-0.7-1.1-1.6-1.1-2.7v-15c0-1.1,0.4-2,1.1-2.7c0.8-0.7,1.7-1,2.8-1H244c1.1,0,2,0.4,2.7,1
			c0.7,0.7,1.1,1.6,1.1,2.7v15c0,1-0.4,1.9-1.1,2.6c-0.7,0.8-1.6,1.1-2.7,1.1h-47.2C195.6,71.2,194.7,70.9,193.9,70.2z"/>
		<path class="st0" d="M281.5,104c-0.8-0.7-1.1-1.6-1.1-2.7V24.5H254c-1.1,0-2-0.3-2.8-1s-1.1-1.6-1.1-2.7V3.9c0-1.1,0.4-2,1.1-2.8
			S252.9,0,254,0h81.4c1.1,0,2,0.4,2.8,1.1s1.1,1.7,1.1,2.8v16.8c0,1.1-0.4,2-1.1,2.7c-0.8,0.7-1.7,1-2.8,1H309v76.8
			c0,1.1-0.4,2-1.1,2.7c-0.8,0.7-1.7,1-2.8,1h-20.8C283.2,105,282.3,104.7,281.5,104z"/>
		<path class="st0" d="M177.4,24.7c0.7,0,1.3-0.3,1.8-0.9s0.7-1.4,0.7-2.3V3.2c0-0.9-0.2-1.6-0.7-2.2s-1.1-1-1.8-1h-21.3l0,0h-21.5
			l0,0h-21.3c-0.7,0-1.2,0.3-1.7,1c-0.5,0.6-0.7,1.4-0.7,2.2v18.3c0,0.9,0.2,1.7,0.7,2.3c0.5,0.6,1.1,0.9,1.7,0.9h17.5v55.6h-17.5
			c-0.7,0-1.2,0.3-1.7,1c-0.5,0.6-0.7,1.4-0.7,2.2v18.3c0,0.9,0.2,1.7,0.7,2.3c0.5,0.6,1.1,0.9,1.7,0.9h20.5
			c0.3,0.1,0.5,0.1,0.8,0.1h21.5c0.3,0,0.6,0,0.9-0.1h20.4c0.7,0,1.3-0.3,1.8-0.9s0.7-1.4,0.7-2.3V83.4c0-0.9-0.2-1.6-0.7-2.2
			s-1.1-1-1.8-1h-17.5V24.7H177.4z"/>
		<path class="st0" d="M424.1,24.7c0.7,0,1.3-0.3,1.8-0.9s0.7-1.4,0.7-2.3V3.2c0-0.9-0.2-1.6-0.7-2.2s-1.1-1-1.8-1h-21.3l0,0h-21.5
			l0,0H360c-0.7,0-1.2,0.3-1.7,1c-0.5,0.6-0.7,1.4-0.7,2.2v18.3c0,0.9,0.2,1.7,0.7,2.3c0.5,0.6,1.1,0.9,1.7,0.9h17.5v55.6H360
			c-0.7,0-1.2,0.3-1.7,1c-0.5,0.6-0.7,1.4-0.7,2.2v18.3c0,0.9,0.2,1.7,0.7,2.3c0.5,0.6,1.1,0.9,1.7,0.9h20.5
			c0.3,0.1,0.5,0.1,0.8,0.1h21.5c0.3,0,0.6,0,0.9-0.1h20.4c0.7,0,1.3-0.3,1.8-0.9s0.7-1.4,0.7-2.3V83.4c0-0.9-0.2-1.6-0.7-2.2
			s-1.1-1-1.8-1h-17.5V24.7H424.1z"/>
		<path class="st0" d="M448,103.9c-0.8-0.8-1.1-1.6-1.1-2.6V3.9c0-1.1,0.3-2,1-2.8s1.6-1.1,2.7-1.1h70.8c1.1,0,2,0.4,2.8,1.1
			s1.1,1.7,1.1,2.8v14.8c0,1.1-0.4,2-1.1,2.7c-0.8,0.7-1.7,1-2.8,1H474v19h44.1c1.1,0,2,0.4,2.8,1.1s1.1,1.7,1.1,2.8v13.6
			c0,1.1-0.4,2-1.1,2.8s-1.7,1.1-2.8,1.1H474v19.5h48.6c1.1,0,2,0.4,2.8,1.1s1.1,1.7,1.1,2.8V101c0,1.1-0.4,2-1.1,2.7
			c-0.8,0.7-1.7,1-2.8,1h-72C449.7,105,448.8,104.6,448,103.9z"/>
		<path class="st0" d="M544.3,103.9c-0.8-0.8-1.1-1.6-1.1-2.6V3.9c0-1.1,0.3-2,1-2.8C545,0.4,545.9,0,547,0h41.2c13.2,0,23.5,3,31,9
			c7.4,6,11.2,14.5,11.2,25.3c0,7-1.6,13-4.9,17.9c-3.2,4.9-7.7,8.7-13.4,11.4l20.2,36.6c0.3,0.6,0.5,1.2,0.5,1.6
			c0,0.8-0.3,1.5-0.9,2.2c-0.6,0.7-1.3,1-2.2,1h-21.1c-2.9,0-5-1.3-6.2-4l-16.5-32.5h-14.4v32.8c0,1.1-0.4,2-1.1,2.7
			c-0.8,0.7-1.7,1-2.8,1H547C546,105,545.1,104.6,544.3,103.9z M588.1,46.3c4.3,0,7.6-1.1,9.8-3.2c2.2-2.1,3.4-5.1,3.4-8.9
			c0-3.8-1.1-6.8-3.4-9.2c-2.2-2.3-5.5-3.5-9.8-3.5h-16.6v24.8C571.5,46.3,588.1,46.3,588.1,46.3z"/>
	</g>
</g>
</svg>
